<svg width="104" height="24" viewBox="0 0 104 24" fill="none" xmlns="http://www.w3.org/2000/svg">
<path d="M50.6953 19.9598L50.3757 18.0863C50.3565 17.9501 50.3181 17.8575 50.2596 17.8077C50.2011 17.7588 50.0753 17.7544 49.8823 17.7929C49.747 17.813 49.5775 17.8365 49.3741 17.8662C49.1706 17.8959 48.968 17.9204 48.7645 17.9396C48.561 17.9588 48.3628 17.9737 48.1698 17.9833C47.976 17.9929 47.8214 17.9981 47.7052 17.9981C47.1053 17.9981 46.6599 17.8811 46.37 17.647C46.0801 17.413 45.9342 16.9841 45.9342 16.3588V8.48856H48.8518C49.0641 8.48856 49.195 8.44926 49.2431 8.37153C49.2911 8.2938 49.3156 8.16628 49.3156 7.99073V6.3959C49.3156 6.25965 49.2911 6.14698 49.2431 6.05964C49.195 5.97143 49.0641 5.92776 48.8518 5.92776H45.9342V2.2097C45.9342 1.99485 45.8853 1.85423 45.7893 1.78523C45.6923 1.7171 45.5666 1.70226 45.412 1.74156L43.3336 2.32586C43.1205 2.40447 42.9703 2.4822 42.8839 2.55993C42.7966 2.63767 42.6193 2.70754 42.6193 3.09445V5.92776H41.1906C40.9609 5.92776 40.8762 5.98191 40.8186 6.05964C40.7837 6.10681 40.0798 7.89291 40.0423 8.03527C40.0047 8.17763 40.0466 8.26323 40.1278 8.35057C40.2091 8.43791 40.3104 8.48856 40.5068 8.48856H42.6437L42.5678 16.7981C42.5678 18.2034 42.8961 19.2471 43.5546 19.9301C44.2121 20.6131 45.3343 20.9546 46.9219 20.9546C47.2896 20.9546 47.8022 20.9345 48.4606 20.8961C49.1182 20.8568 49.7766 20.7301 50.4342 20.5153C50.608 20.4375 50.6997 20.3546 50.7102 20.2663C50.7198 20.1781 50.7145 20.0759 50.6953 19.9589V19.9598Z" fill="#D71340"/>
<path d="M20.5237 4.95567C19.6723 4.95567 18.7623 5.01942 17.7947 5.14607C16.8271 5.27358 15.9373 5.49281 15.1242 5.80461C14.8727 5.90243 14.7854 6.10768 14.8631 6.41948L15.2692 8.08855C15.3076 8.2641 15.3757 8.37153 15.4727 8.41083C15.5687 8.45013 15.7242 8.43965 15.9373 8.38114C16.4211 8.2248 17.0498 8.08855 17.8244 7.97151C18.5981 7.85448 19.3142 7.79596 19.9727 7.79596C20.5918 7.79596 21.0948 7.85972 21.4817 7.98636C21.8685 8.11388 22.1733 8.2938 22.396 8.52787C22.6178 8.76194 22.768 9.03531 22.8457 9.34799C22.9226 9.65979 22.9619 10.0022 22.9619 10.3725V10.8703H19.7107C18.5492 10.8703 17.5668 11.0171 16.7643 11.3096C15.9608 11.6022 15.3076 11.9883 14.8046 12.466C14.3007 12.9446 13.9383 13.501 13.7165 14.1351C13.4938 14.7692 13.3829 15.4277 13.3829 16.1107C13.3829 16.7937 13.479 17.4042 13.6729 17.999C13.8659 18.5947 14.2099 19.1117 14.7033 19.5502C15.1967 19.9895 15.8648 20.3406 16.7066 20.6044C17.5485 20.8681 18.6077 21 19.8853 21C20.3499 21 20.8381 20.9852 21.3516 20.9563C21.8642 20.9266 22.382 20.8734 22.9051 20.7956C23.4273 20.717 23.9356 20.6105 24.429 20.4733C24.9224 20.3371 25.3817 20.1711 25.8079 19.9764C26.1755 19.8008 26.3598 19.4785 26.3598 19.0104V10.2284C26.3598 8.51127 25.89 7.20292 24.9521 6.30594C24.0133 5.40809 22.5375 4.95916 20.5254 4.95916L20.5237 4.95567ZM22.9331 17.778C22.6816 17.8759 22.4056 17.9536 22.1061 18.0121C21.8057 18.0706 21.521 18.1195 21.2494 18.1588C20.9778 18.1981 20.7219 18.2226 20.48 18.2322C20.2381 18.2418 20.0486 18.247 19.9142 18.247C18.985 18.247 18.2401 18.0811 17.6786 17.7492C17.1171 17.4173 16.8367 16.8321 16.8367 15.9928C16.8367 15.4076 16.9476 14.9491 17.1703 14.6172C17.3921 14.2853 17.6733 14.032 18.0122 13.8565C18.3501 13.6809 18.709 13.5735 19.0863 13.5342C19.4635 13.4958 19.8163 13.4757 20.1456 13.4757H22.9322V17.7789L22.9331 17.778Z" fill="#D71340"/>
<path d="M38.0503 13.1848C37.5892 12.8285 37.0618 12.5263 36.4671 12.2774C35.8715 12.0293 35.2628 11.7953 34.6402 11.576C34.0953 11.3944 33.6324 11.2197 33.2517 11.0537C32.8718 10.8878 32.5635 10.7253 32.3286 10.5664C32.0937 10.4074 31.9208 10.2327 31.8116 10.0432C31.7016 9.85369 31.6448 9.62486 31.6396 9.35585C31.6335 8.99164 31.7916 8.658 32.1155 8.35493C32.4395 8.05186 32.9591 7.89465 33.6752 7.88155C34.3328 7.8702 34.9484 7.90688 35.5204 7.99335C36.0924 8.07981 36.7587 8.25013 37.5176 8.50516C37.6731 8.56018 37.7944 8.57678 37.8818 8.55669C37.9682 8.5366 38.0398 8.44839 38.0949 8.2938L38.7341 6.64307C38.7699 6.48935 38.7725 6.35485 38.7411 6.24044C38.7105 6.12602 38.6162 6.03169 38.4608 5.95745C37.701 5.66399 36.9133 5.45263 36.0977 5.32249C35.282 5.19323 34.4681 5.13559 33.656 5.14956C32.7653 5.16528 31.9819 5.2893 31.3051 5.52163C30.6275 5.75395 30.0633 6.06576 29.611 6.45791C29.1586 6.85007 28.8207 7.31122 28.5954 7.84225C28.3709 8.37328 28.2635 8.95583 28.2749 9.58817C28.2845 10.1637 28.3954 10.6703 28.6059 11.107C28.8172 11.5446 29.1185 11.9376 29.5123 12.2852C29.9053 12.6337 30.3996 12.9464 30.9943 13.2233C31.589 13.5001 32.2858 13.7761 33.0849 14.0495C34.1363 14.4146 34.9266 14.7561 35.4541 15.0722C35.9824 15.3893 36.2514 15.826 36.261 16.3815C36.2697 16.8802 36.0732 17.2907 35.6724 17.6147C35.2716 17.9379 34.6646 18.1073 33.8525 18.1213C33.194 18.1326 32.4378 18.0549 31.5837 17.8881C30.7288 17.7204 29.9507 17.4802 29.2486 17.1667C29.0338 17.0749 28.8792 17.054 28.7831 17.1029C28.6871 17.1527 28.5919 17.2645 28.4984 17.4383L27.8295 19.0611C27.6802 19.3711 27.7518 19.5999 28.0443 19.7484C28.4548 19.9711 28.9036 20.1607 29.3918 20.3144C29.8791 20.469 30.3865 20.5904 30.9113 20.6768C31.437 20.7633 31.9618 20.8262 32.4867 20.8646C33.0115 20.9031 33.5067 20.9188 33.9721 20.9109C34.7869 20.8969 35.5414 20.7921 36.2374 20.5982C36.9325 20.4043 37.5342 20.1152 38.0416 19.7327C38.5498 19.3501 38.9437 18.868 39.2249 18.2881C39.5061 17.7082 39.6397 17.0339 39.6266 16.2671C39.6144 15.5579 39.4633 14.9561 39.1742 14.4626C38.8843 13.9691 38.5097 13.5447 38.0486 13.1874L38.0503 13.1848Z" fill="#D71340"/>
<path d="M72.1936 4.95567C71.3422 4.95567 69.6262 5.23777 68.814 5.54958C68.5625 5.6474 68.4752 5.85177 68.5529 6.16358L68.959 7.83089C68.9974 8.00645 69.0655 8.11388 69.1625 8.15231C69.2594 8.19161 69.414 8.18113 69.6271 8.12348C70.1108 7.96714 70.985 7.79247 71.6426 7.79247C72.2617 7.79247 72.7647 7.85622 73.1516 7.98287C73.5384 8.10951 73.8432 8.2903 74.0659 8.52437C74.2886 8.75844 74.4388 9.03094 74.5156 9.34362C74.5934 9.65542 74.6318 9.99692 74.6318 10.3672V10.8642H71.3806C70.2191 10.8642 69.2376 11.0101 68.4342 11.3027C67.6307 11.5952 66.9775 11.9804 66.4745 12.4582C65.9715 12.9359 65.6082 13.4914 65.3864 14.1255C65.1637 14.7596 65.0528 15.4172 65.0528 16.0994C65.0528 16.7815 65.1498 17.3911 65.3428 17.9859C65.5366 18.5807 65.8798 19.0977 66.3732 19.5362C66.8666 19.9746 67.5347 20.3257 68.3756 20.5895C69.2175 20.8524 70.2768 20.9843 71.5544 20.9843C72.019 20.9843 72.5071 20.9694 73.0206 20.9406C73.5332 20.9118 74.0511 20.8576 74.5733 20.7799C75.0955 20.7022 75.6037 20.5947 76.0971 20.4585C76.5905 20.3222 77.0499 20.1563 77.476 19.9615C77.8437 19.786 78.0279 19.4646 78.0279 18.9964V10.2223C78.0279 8.50603 77.559 7.2003 76.6202 6.30332C75.6815 5.40634 74.2065 4.95829 72.1936 4.95829V4.95567ZM74.603 17.7667C74.3515 17.8645 74.0755 17.9422 73.776 18.0007C73.4764 18.0593 73.1909 18.1082 72.9193 18.1466C72.6486 18.1859 72.3918 18.2104 72.1499 18.22C71.908 18.2296 71.7194 18.2348 71.5841 18.2348C70.6549 18.2348 69.91 18.0689 69.3493 17.7379C68.7887 17.4068 68.5075 16.8217 68.5075 15.9832C68.5075 15.398 68.6184 14.9404 68.8411 14.6085C69.0638 14.2766 69.3441 14.0233 69.6829 13.8477C70.0218 13.6722 70.3798 13.5648 70.7571 13.5263C71.1343 13.487 71.488 13.4678 71.8163 13.4678H74.603V17.7675V17.7667Z" fill="#D71340"/>
<path d="M103.547 14.46C103.258 13.9665 102.882 13.5412 102.421 13.1848C101.96 12.8285 101.432 12.5263 100.838 12.2774C100.242 12.0293 99.6336 11.7953 99.011 11.576C98.4652 11.3944 98.0032 11.2197 97.6225 11.0537C97.2426 10.8878 96.9352 10.7253 96.6994 10.5664C96.4645 10.4074 96.2916 10.2327 96.1824 10.0432C96.0724 9.85369 96.0157 9.62486 96.0104 9.35585C96.0043 8.99164 96.1624 8.658 96.4863 8.35493C96.8095 8.05186 97.3299 7.89465 98.046 7.88155C98.7036 7.8702 99.3192 7.90688 99.8912 7.99335C100.463 8.07981 101.13 8.25013 101.888 8.50516C102.044 8.56018 102.165 8.57678 102.253 8.55669C102.339 8.5366 102.411 8.44839 102.466 8.2938L103.105 6.64307C103.141 6.48935 103.143 6.35485 103.112 6.24044C103.081 6.12602 102.987 6.03169 102.832 5.95745C102.072 5.66399 101.284 5.45263 100.469 5.32249C99.6537 5.19323 98.8398 5.13559 98.0277 5.14956C97.1369 5.16528 96.3536 5.2893 95.6768 5.52163C94.9992 5.75395 94.435 6.06576 93.9827 6.45791C93.5303 6.85007 93.1915 7.31122 92.9671 7.84225C92.7426 8.37328 92.6352 8.95583 92.6466 9.58817C92.6562 10.1637 92.7671 10.6703 92.9775 11.107C93.1889 11.5446 93.4902 11.9376 93.884 12.2852C94.277 12.6337 94.7712 12.9464 95.3659 13.2233C95.9606 13.501 96.6575 13.7761 97.4566 14.0495C98.508 14.4154 99.2983 14.7561 99.8257 15.0722C100.354 15.3893 100.623 15.826 100.633 16.3815C100.641 16.8802 100.445 17.2907 100.044 17.6147C99.6432 17.9379 99.0363 18.1073 98.2242 18.1213C97.5666 18.1326 96.8095 18.0549 95.9554 17.8881C95.1005 17.7204 94.3224 17.4802 93.6203 17.1667C93.4054 17.0749 93.2509 17.054 93.1548 17.1029C93.0587 17.1527 92.9644 17.2645 92.8701 17.4383L92.2021 19.0611C92.0527 19.3711 92.1243 19.5999 92.4169 19.7484C92.8273 19.9711 93.2762 20.1607 93.7644 20.3144C94.2516 20.469 94.7581 20.5904 95.2847 20.6768C95.8096 20.7633 96.3353 20.8262 96.8592 20.8646C97.3841 20.9031 97.8792 20.9188 98.3447 20.9109C99.1594 20.8969 99.9148 20.7921 100.61 20.5982C101.305 20.4043 101.907 20.1152 102.414 19.7327C102.922 19.3501 103.315 18.868 103.597 18.2881C103.879 17.7082 104.012 17.0339 103.999 16.2671C103.987 15.5579 103.836 14.9561 103.547 14.4626V14.46Z" fill="#D71340"/>
<path d="M89.7167 13.1848C89.2556 12.8285 88.7282 12.5263 88.1335 12.2774C87.5379 12.0293 86.9292 11.7953 86.3066 11.576C85.7617 11.3944 85.2988 11.2197 84.9181 11.0537C84.5382 10.8878 84.2299 10.7253 83.995 10.5664C83.7601 10.4074 83.5872 10.2327 83.4781 10.0432C83.368 9.85369 83.3113 9.62486 83.306 9.35585C83.2999 8.99164 83.458 8.658 83.782 8.35493C84.1059 8.05186 84.6255 7.89465 85.3416 7.88155C85.9992 7.8702 86.6149 7.90688 87.1868 7.99335C87.7588 8.07981 88.4251 8.25013 89.184 8.50516C89.3395 8.56018 89.4609 8.57678 89.5482 8.55669C89.6346 8.5366 89.7062 8.44839 89.7613 8.2938L90.4005 6.64307C90.4363 6.48935 90.4389 6.35485 90.4075 6.24044C90.3769 6.12602 90.2826 6.03169 90.1272 5.95745C89.3674 5.66399 88.5797 5.45263 87.7641 5.32249C86.9493 5.19323 86.1346 5.13559 85.3224 5.14956C84.4317 5.16528 83.6483 5.2893 82.9716 5.52163C82.2939 5.75395 81.7298 6.06576 81.2774 6.45791C80.825 6.85007 80.4871 7.31122 80.2618 7.84225C80.0365 8.37328 79.9299 8.95583 79.9413 9.58817C79.9509 10.1637 80.0618 10.6703 80.2731 11.107C80.4836 11.5446 80.7857 11.9376 81.1787 12.2852C81.5717 12.6337 82.066 12.9464 82.6607 13.2233C83.2562 13.501 83.9522 13.7761 84.7513 14.0495C85.8027 14.4154 86.593 14.7561 87.1205 15.0722C87.6488 15.3893 87.9178 15.826 87.9274 16.3815C87.9361 16.8802 87.7396 17.2907 87.3388 17.6147C86.938 17.9379 86.331 18.1073 85.5189 18.1213C84.8604 18.1326 84.1042 18.0549 83.2501 17.8881C82.3952 17.7204 81.6171 17.4802 80.915 17.1667C80.7002 17.0749 80.5456 17.054 80.4495 17.1029C80.3535 17.1527 80.2592 17.2645 80.1648 17.4383L79.4968 19.0611C79.3475 19.3711 79.4191 19.5999 79.7116 19.7484C80.1221 19.9711 80.5709 20.1607 81.0591 20.3144C81.5464 20.469 82.0537 20.5904 82.5786 20.6768C83.1043 20.7633 83.6291 20.8262 84.154 20.8646C84.6788 20.9031 85.174 20.9188 85.6394 20.9109C86.4542 20.8969 87.2096 20.7921 87.9047 20.5982C88.5998 20.4043 89.2006 20.1152 89.7089 19.7327C90.2171 19.3501 90.611 18.868 90.8922 18.2881C91.1725 17.7082 91.307 17.0339 91.2939 16.2671C91.2816 15.5579 91.1297 14.9561 90.8406 14.4626C90.5516 13.9691 90.1761 13.5438 89.715 13.1874L89.7167 13.1848Z" fill="#D71340"/>
<path d="M66.5208 4.15388C66.1837 3.34074 65.7139 2.64028 65.1113 2.05335C64.5088 1.46643 63.784 1.01401 62.9369 0.694349C62.0889 0.375559 61.1554 0.215727 60.1346 0.215727H53.9247C53.2916 0.215727 52.7772 0.729285 52.7772 1.36337V1.90837C52.7772 1.93195 52.7755 1.95466 52.7755 1.97649V17.8208H52.7737V20.4463C52.7737 20.7336 53.0069 20.9668 53.2942 20.9668H55.7725C56.0599 20.9668 56.293 20.7336 56.293 20.4463V13.6538H59.8272C61.3589 13.6538 62.5937 13.4014 63.5333 12.8966C64.4721 12.3927 65.2022 11.7795 65.7235 11.059C66.244 10.3384 66.5915 9.59167 66.7653 8.81958C66.9382 8.04749 67.0256 7.38283 67.0256 6.82735C67.0256 5.85963 66.857 4.96876 66.5199 4.15562L66.5208 4.15388ZM62.6365 9.51306C62.0444 10.1515 61.1048 10.4703 59.8184 10.4703H56.0992V3.61324H59.7573C60.5127 3.61324 61.1353 3.72679 61.6252 3.953C62.116 4.18008 62.4985 4.46219 62.7736 4.80194C63.0487 5.14169 63.2425 5.51725 63.3552 5.9295C63.467 6.34174 63.5237 6.72254 63.5237 7.07278C63.5237 8.06146 63.2277 8.87461 62.6356 9.51306H62.6365Z" fill="#D71340"/>
<path d="M12.7812 20.1781C12.721 19.8296 12.6599 19.482 12.5987 19.1335C12.5533 18.8741 12.507 18.6147 12.4608 18.3553C12.4232 18.144 12.418 17.8462 12.2582 17.6907C12.2346 17.668 12.2093 17.647 12.1813 17.6296C11.9979 17.5108 11.7892 17.5178 11.5814 17.5178C11.3735 17.5178 11.15 17.5178 10.9351 17.5186C10.5675 17.5186 10.2007 17.5195 9.83307 17.5204C9.82958 17.5204 9.82696 17.5204 9.82347 17.5204H6.10332C5.39335 17.5204 4.83532 17.3518 4.42838 17.0156C4.02143 16.6793 3.81796 16.0994 3.81796 15.2792V0.565962C3.81796 0.528406 3.81359 0.491723 3.80661 0.455914C3.76644 0.253285 3.61798 0.0890866 3.42411 0.0270753C3.36997 0.0096073 3.31233 0 3.25295 0H0.565009C0.484667 0 0.407819 0.0174679 0.337957 0.0480368C0.184261 0.115289 0.0663689 0.249792 0.0209586 0.413991C0.00785947 0.462028 0 0.513558 0 0.565962V0.663783C0 0.663783 0 0.745009 0 0.672517V15.2801C0 16.0173 0.0829611 16.7221 0.25063 17.3955C0.417425 18.0697 0.709976 18.6689 1.1274 19.1947C1.54483 19.7213 2.10809 20.1423 2.81806 20.4576C3.52716 20.7729 4.42488 20.931 5.51037 20.931H11.1264C11.6111 20.931 12.893 20.9677 12.7821 20.1781H12.7812Z" fill="#D71340"/>
</svg>
